<?xml version="1.0" encoding="UTF-8" standalone="no"?>
<!-- Created with Inkscape (http://www.inkscape.org/) -->
<svg
   xmlns:svg="http://www.w3.org/2000/svg"
   xmlns="http://www.w3.org/2000/svg"
   version="1.0"
   width="581.98816"
   height="248.03149"
   id="svg3815">
  <defs
     id="defs3817" />
  <g
     id="layer1">
    <g
       transform="matrix(0.693212,0,0,0.693212,-65.936722,-115.83078)"
       id="g3882">
      <rect
         width="187.92209"
         height="210.52927"
         x="430.47818"
         y="235.67821"
         id="rect3867"
         style="opacity:1;fill:#ffffff;fill-opacity:1;fill-rule:nonzero;stroke:none;marker:none;marker-start:none;marker-mid:none;marker-end:none;visibility:visible;display:inline;overflow:visible" />
      <path
         d="M 120.65625,202.125 L 120.65625,260.625 L 182.84375,260.625 L 182.84375,202.125 L 120.65625,202.125 z M 192.3125,202.125 L 192.3125,260.625 L 254.46875,260.625 L 254.46875,202.125 L 192.3125,202.125 z M 263.9375,202.125 L 263.9375,260.625 L 326.09375,260.625 L 326.09375,202.125 L 263.9375,202.125 z M 297.09375,209.78125 C 297.34495,209.78125 297.48484,209.78126 297.75,209.78125 C 298.30821,209.78125 298.87566,209.80187 299.46875,209.84375 C 299.79669,209.8577 300.1478,209.8644 300.46875,209.90625 C 300.97811,209.94114 301.43177,209.99273 301.90625,210.0625 L 302.25,210.125 C 302.52212,210.18082 302.83558,210.1872 303.09375,210.25 C 303.44263,210.29187 303.73455,210.38866 304.0625,210.4375 C 304.39045,210.49333 304.71028,210.54824 305.03125,210.625 C 305.20569,210.6878 305.41232,210.7221 305.59375,210.75 C 305.88681,210.84071 306.16172,210.9372 306.46875,211 C 306.67807,211.06978 306.93298,211.13167 307.15625,211.1875 L 307.375,211.25 C 307.63318,211.32676 307.8565,211.40595 308.09375,211.46875 C 308.41472,211.55945 308.686,211.6593 309,211.75 C 309.25817,211.84071 309.51277,211.92324 309.75,212 C 310.07097,212.11862 310.38413,212.20783 310.65625,212.3125 C 311.15166,212.49391 311.58498,212.66596 311.96875,212.8125 C 312.79211,213.14045 313.31251,213.3125 313.3125,213.3125 L 313.3125,221.1875 L 312.5,220.71875 C 312.19298,220.55826 311.80762,220.3413 311.375,220.125 C 311.13078,219.99243 310.87983,219.87224 310.59375,219.71875 C 310.24487,219.57222 309.86982,219.37589 309.5,219.1875 C 309.0325,218.99213 308.5476,218.78579 308.03125,218.5625 C 307.64748,218.42993 307.25878,218.26455 306.875,218.125 C 306.875,218.125 306.62708,218.04246 306.1875,217.875 C 305.91538,217.78429 305.57128,217.68808 305.1875,217.5625 C 304.93631,217.48574 304.67503,217.4205 304.375,217.34375 C 303.88657,217.21117 303.37072,217.07705 302.8125,216.9375 C 302.44269,216.88168 302.02272,216.82675 301.625,216.75 C 301.16447,216.67324 300.67591,216.61832 300.1875,216.5625 C 299.92235,216.53459 299.65411,216.55916 299.375,216.53125 C 298.97728,216.51729 298.59919,216.48271 298.1875,216.46875 C 297.99213,216.46875 297.7961,216.46875 297.59375,216.46875 C 297.04252,216.46875 296.48538,216.52062 295.90625,216.5625 C 295.59226,216.57645 295.27578,216.59709 294.96875,216.625 C 294.65476,216.67384 294.3695,216.71845 294.0625,216.78125 C 293.79735,216.82312 293.50483,216.87471 293.21875,216.9375 C 292.94663,217.00727 292.64713,217.08648 292.375,217.15625 C 292.06799,217.24696 291.78607,217.36408 291.5,217.46875 C 291.22089,217.55248 290.95266,217.65233 290.6875,217.75 C 290.41537,217.84769 290.14712,217.97513 289.875,218.09375 C 288.18642,218.84733 286.52082,219.94793 285.0625,221.40625 C 284.97877,221.51091 284.85466,221.62804 284.75,221.71875 C 284.56858,221.9211 284.39319,222.13442 284.21875,222.34375 C 284.10711,222.49726 283.99362,222.63807 283.875,222.8125 C 283.55403,223.25907 283.21993,223.70968 282.96875,224.15625 C 282.83617,224.3586 282.74362,224.57191 282.625,224.78125 C 282.49243,225.05337 282.36861,225.31463 282.25,225.59375 C 282.15232,225.78912 282.06281,225.97483 282,226.15625 C 281.88138,226.47024 281.77123,226.77642 281.6875,227.0625 C 281.58284,227.38347 281.51426,227.66871 281.4375,227.96875 C 281.33284,228.42229 281.2503,228.83832 281.1875,229.25 C 281.11075,229.89892 281.04519,230.47698 281.03125,230.9375 L 281.03125,231.4375 C 281.03125,231.66078 281.01729,231.94298 281.03125,232.25 C 281.04521,232.45235 281.05189,232.67933 281.09375,232.9375 C 281.14957,233.58641 281.25609,234.34686 281.4375,235.15625 C 281.54217,235.44931 281.61409,235.76944 281.71875,236.0625 C 281.8583,236.45324 281.97484,236.86623 282.15625,237.25 C 282.26091,237.48723 282.35712,237.73849 282.46875,237.96875 C 282.61528,238.24785 282.77004,238.54735 282.9375,238.8125 C 283.04216,239.01485 283.16262,239.20753 283.28125,239.375 C 283.4208,239.58432 283.54794,239.75942 283.6875,239.96875 C 283.84798,240.16412 284.00972,240.39838 284.15625,240.59375 C 284.47024,240.9496 284.78644,241.29342 285.15625,241.65625 L 285.25,241.75 L 285.34375,241.8125 L 285.46875,241.9375 L 285.71875,242.1875 C 285.91412,242.35497 286.14473,242.53734 286.375,242.71875 C 286.58433,242.90017 286.81494,243.05492 287.03125,243.1875 C 287.22662,243.33403 287.45056,243.45421 287.625,243.59375 C 287.83432,243.69841 288.01305,243.79461 288.1875,243.90625 C 288.57127,244.12256 288.94603,244.34285 289.34375,244.53125 C 289.51819,244.62196 289.70755,244.69751 289.875,244.78125 C 290.0006,244.82312 290.10711,244.87137 290.21875,244.90625 C 290.37923,244.97602 290.53034,245.03793 290.71875,245.09375 C 291.82819,245.49845 293.00495,245.79765 294.15625,246 C 294.88192,246.11862 295.59047,246.19418 296.28125,246.25 C 296.8883,246.29187 297.43483,246.28125 298,246.28125 C 298.27911,246.28125 298.568,246.2952 298.875,246.28125 C 299.32156,246.26729 299.85503,246.19813 300.40625,246.15625 C 300.78304,246.11439 301.13354,246.04188 301.53125,246 C 301.69872,245.97209 301.84982,245.94113 302.03125,245.90625 C 303.44072,245.65505 305.01259,245.29121 306.75,244.65625 C 307.67104,244.33529 308.60991,243.92927 309.59375,243.46875 C 310.16591,243.18267 310.73337,242.91807 311.3125,242.625 C 311.82884,242.33194 312.36202,241.99118 312.90625,241.65625 L 313.46875,241.34375 C 313.55946,241.30188 313.64534,241.21208 313.75,241.15625 L 313.75,249.15625 C 313.60347,249.19811 313.46236,249.26699 313.34375,249.34375 C 313.02278,249.4833 312.69233,249.63472 312.40625,249.78125 C 312.06434,249.94173 311.71326,250.10711 311.40625,250.21875 C 310.88293,250.46297 310.42534,250.63473 310.0625,250.78125 C 309.77642,250.88591 309.55641,250.96846 309.375,251.03125 L 309,251.15625 C 308.63018,251.2958 308.27273,251.42659 307.875,251.53125 C 307.54008,251.64987 307.16837,251.7218 306.8125,251.8125 C 306.32407,251.9381 305.8255,252.09315 305.28125,252.21875 C 304.93935,252.27457 304.58159,252.35043 304.21875,252.40625 C 303.63961,252.52487 303.02392,252.61075 302.375,252.6875 C 301.96332,252.74332 301.54031,252.77063 301.09375,252.8125 L 300.875,252.84375 C 299.7516,252.93446 298.5618,253.00001 297.25,253 L 296.71875,253 C 296.35591,252.97209 296.00178,252.95145 295.625,252.9375 C 294.91328,252.90959 294.20808,252.83373 293.53125,252.75 C 292.84744,252.67325 292.17653,252.5631 291.5625,252.4375 C 290.78101,252.28399 290.0312,252.09464 289.3125,251.90625 C 288.87292,251.78763 288.47753,251.67777 288.09375,251.53125 C 287.69603,251.39867 287.26909,251.27153 286.90625,251.125 C 285.90147,250.71332 285.00387,250.26605 284.1875,249.8125 C 283.7828,249.56829 283.40471,249.31004 283,249.09375 C 282.65112,248.87047 282.35223,248.64348 282.03125,248.40625 C 281.75913,248.23181 281.51152,248.01819 281.28125,247.84375 C 281.02307,247.65535 280.79276,247.42444 280.5625,247.25 C 280.22758,246.9709 279.94234,246.69567 279.65625,246.4375 L 279.5,246.28125 C 279.17205,245.96028 278.83827,245.58857 278.53125,245.21875 C 278.25215,244.89779 277.96995,244.5919 277.71875,244.25 C 277.46058,243.94299 277.19901,243.60584 276.96875,243.25 C 276.78733,242.97787 276.61892,242.72359 276.4375,242.4375 C 276.21422,242.06769 276.00455,241.68929 275.78125,241.3125 C 275.43935,240.66359 275.11253,239.99296 274.8125,239.28125 C 274.63108,238.81375 274.44871,238.35646 274.28125,237.875 C 274.14868,237.47728 274.02488,237.09221 273.90625,236.6875 C 273.84345,236.37351 273.77457,236.05702 273.71875,235.75 C 273.68386,235.58952 273.6529,235.466 273.625,235.3125 C 273.54825,234.94967 273.4481,234.52273 273.40625,234.125 L 273.375,233.90625 C 273.34709,233.5783 273.31615,233.24118 273.28125,232.90625 C 273.28125,232.57831 273.28126,232.24817 273.28125,231.90625 C 273.28125,231.47364 273.2776,231.01939 273.3125,230.59375 C 273.34739,230.00764 273.41292,229.47143 273.46875,228.90625 C 273.70599,227.20372 274.11532,225.56966 274.6875,224.0625 C 275.1829,222.8484 275.74339,221.7029 276.40625,220.65625 C 276.51091,220.47483 276.60014,220.29943 276.71875,220.125 C 276.90017,219.85985 277.08588,219.6262 277.28125,219.375 C 277.53244,219.0331 277.73486,218.68201 278,218.375 C 278.23723,218.08194 278.48484,217.81035 278.75,217.53125 C 278.9663,217.23819 279.2661,216.97692 279.53125,216.71875 C 279.83129,216.44663 280.14779,216.13681 280.46875,215.84375 C 280.82461,215.52278 281.22728,215.22024 281.625,214.90625 C 281.79944,214.77368 281.99212,214.61528 282.1875,214.46875 C 282.42474,214.29431 282.64474,214.16746 282.875,214 C 283.28668,213.72787 283.71666,213.46995 284.15625,213.21875 C 284.61677,212.94662 285.0844,212.71994 285.59375,212.46875 C 286.17289,212.17569 286.81982,211.89713 287.46875,211.625 C 288.71076,211.13657 290.08326,210.73419 291.5625,210.40625 C 291.78578,210.36438 292.03704,210.31615 292.28125,210.28125 C 292.46266,210.23241 292.63805,210.20145 292.8125,210.1875 L 293.21875,210.125 L 293.5625,210.0625 L 293.875,210.03125 C 294.23783,209.96147 294.56768,209.93417 294.9375,209.90625 C 295.18869,209.87834 295.46756,209.86469 295.71875,209.84375 C 296.17229,209.81584 296.60531,209.79521 297.09375,209.78125 z M 137,210.28125 L 150.6875,210.28125 C 158.02793,210.28125 161.28125,214.15625 161.28125,214.15625 C 161.28125,214.15625 164.25,216.70091 164.25,221.1875 C 164.25,225.62525 162.23538,227.48002 161.65625,228.03125 C 160.44913,229.25931 158.875,229.96876 158.875,229.96875 C 158.875,229.96875 162.34457,230.73352 165.09375,233.46875 C 168.3174,236.69937 168.09375,240.875 168.09375,240.875 C 168.09375,240.875 168.31162,244.88621 164.84375,248.375 C 160.56649,252.63831 152.84375,252.43751 152.84375,252.4375 L 137,252.4375 L 137,210.3125 L 137,210.28125 z M 208.625,210.28125 L 222.28125,210.28125 C 229.62167,210.28125 232.90625,214.15625 232.90625,214.15625 C 232.90625,214.15625 235.875,216.70091 235.875,221.1875 C 235.875,225.62525 233.84645,227.48002 233.28125,228.03125 C 232.05319,229.25931 230.5,229.96876 230.5,229.96875 C 230.5,229.96875 233.96959,230.73352 236.71875,233.46875 C 239.93542,236.69937 239.6875,240.875 239.6875,240.875 C 239.6875,240.875 239.9436,244.88621 236.46875,248.375 C 232.19846,252.63831 224.46876,252.43751 224.46875,252.4375 L 208.625,252.4375 L 208.625,210.3125 L 208.625,210.28125 z M 144.53125,216.96875 L 144.53125,227.84375 L 148.15625,227.84375 C 148.15626,227.84375 148.41174,227.84375 148.71875,227.84375 C 148.96297,227.8298 149.28704,227.84041 149.53125,227.8125 C 150.28483,227.75668 151.32502,227.68536 152.34375,227.40625 C 152.55308,227.33648 152.73515,227.25727 152.9375,227.1875 C 153.73993,226.90839 154.50763,226.49934 155.09375,225.90625 C 155.56823,225.43177 155.90172,224.90864 156.125,224.40625 C 156.38317,223.79223 156.47209,223.1547 156.5,222.75 C 156.5279,222.35926 156.53125,222.125 156.53125,222.125 L 156.53125,221.6875 C 156.48937,221.22001 156.40107,220.42014 156.03125,219.6875 C 155.85681,219.32467 155.59524,218.97722 155.28125,218.65625 C 154.85563,218.25852 154.34978,217.94203 153.8125,217.71875 C 152.79379,217.26519 151.64706,217.08708 150.65625,217.03125 C 150.2306,217.00334 149.8592,216.96875 149.53125,216.96875 L 144.53125,216.96875 z M 216.15625,216.96875 L 216.15625,227.84375 L 219.78125,227.84375 C 219.78124,227.84375 220.01581,227.84375 220.34375,227.84375 C 220.61588,227.8298 220.8911,227.84041 221.15625,227.8125 C 221.88889,227.75668 222.91179,227.68536 223.9375,227.40625 C 224.1538,227.33648 224.35681,227.25727 224.53125,227.1875 C 225.32671,226.90839 226.11867,226.49934 226.71875,225.90625 C 227.18624,225.43177 227.50943,224.90864 227.71875,224.40625 C 227.9839,223.79223 228.07616,223.1547 228.125,222.75 C 228.13897,222.35926 228.125,222.125 228.125,222.125 C 228.12501,222.125 228.125,221.9666 228.125,221.6875 C 228.11105,221.22001 228.00877,220.42014 227.625,219.6875 C 227.45056,219.32467 227.18565,218.97722 226.84375,218.65625 C 226.44604,218.25852 225.96082,217.94203 225.4375,217.71875 C 224.4118,217.26519 223.25114,217.08708 222.28125,217.03125 C 221.84865,217.00334 221.45295,216.96875 221.125,216.96875 L 216.15625,216.96875 z M 144.53125,234.46875 L 144.53125,245.9375 L 152,245.9375 C 152,245.9375 152.14808,245.9375 152.40625,245.9375 C 152.65046,245.9375 153.00489,245.88895 153.4375,245.875 C 154.25388,245.7843 155.31107,245.64409 156.34375,245.28125 C 157.29967,244.98819 158.19454,244.51026 158.90625,243.8125 C 159.17838,243.5334 159.38806,243.26879 159.5625,242.96875 C 160.14164,242.05469 160.28459,241.12405 160.3125,240.59375 C 160.34739,240.35652 160.34375,240.21875 160.34375,240.21875 L 160.34375,239.9375 C 160.30887,239.70724 160.29914,239.28 160.1875,238.8125 C 160.05492,238.27524 159.78697,237.64862 159.3125,237.0625 C 159.23574,236.95086 159.14289,236.83373 159.03125,236.75 C 158.80796,236.52671 158.61223,236.35496 158.375,236.1875 C 157.94937,235.89444 157.47114,235.59829 156.96875,235.375 C 156.28495,235.07497 155.54908,234.87226 154.71875,234.71875 C 154.32102,234.64898 153.85979,234.56614 153.40625,234.53125 C 153.12017,234.48938 152.82431,234.4827 152.53125,234.46875 C 152.28004,234.45479 152.00119,234.46875 151.75,234.46875 L 144.53125,234.46875 z M 216.15625,234.46875 L 216.15625,245.9375 L 223.625,245.9375 C 223.62499,245.9375 223.77672,245.9375 224,245.9375 C 224.27213,245.9375 224.62291,245.88895 225.0625,245.875 C 225.85097,245.7843 226.93606,245.64409 227.96875,245.28125 C 228.90374,244.98819 229.79526,244.51026 230.5,243.8125 C 230.77212,243.5334 230.9991,243.26879 231.1875,242.96875 C 231.75269,242.05469 231.90959,241.12405 231.9375,240.59375 C 231.95145,240.35652 231.9375,240.21875 231.9375,240.21875 C 231.9375,240.21875 231.9375,240.11194 231.9375,239.9375 C 231.9375,239.70724 231.93112,239.28 231.8125,238.8125 C 231.66597,238.27524 231.41198,237.64862 230.9375,237.0625 C 230.83284,236.95086 230.72967,236.83373 230.625,236.75 C 230.42265,236.52671 230.20599,236.35496 229.96875,236.1875 C 229.55707,235.89444 229.08916,235.59829 228.59375,235.375 C 227.93088,235.07497 227.15679,234.87226 226.3125,234.71875 C 225.91478,234.64898 225.46052,234.56614 225,234.53125 C 224.72089,234.48938 224.44931,234.4827 224.15625,234.46875 C 223.88412,234.45479 223.62983,234.46875 223.34375,234.46875 L 216.15625,234.46875 z M 304.125,274.46875 C 288.45333,274.46876 278.1875,285.87032 278.1875,299.28125 C 278.18749,312.4061 288.20273,324.09375 304,324.09375 C 320.3764,324.09374 330.15625,312.31539 330.15625,299.28125 C 330.15624,285.8145 320.0967,274.46875 304.125,274.46875 z M 178.40625,274.8125 L 157.78125,323.125 C 154.69543,318.86183 153.44158,317.10718 151.4375,313.875 C 147.76031,307.86033 145.03817,303.40267 140.65625,300.5 C 145.83362,298.44161 148.75,294.26623 148.75,288.65625 C 148.75,280.2971 142.65758,275.09375 132.875,275.09375 L 120.65625,275.09375 L 120.65625,323.46875 L 127.625,323.46875 L 127.625,302.46875 L 130.53125,302.46875 C 134.0968,302.46875 136.96958,303.62641 143.375,313.5625 L 149.75,323.46875 L 158.03125,323.46875 L 164.71875,323.46875 L 170.8125,309.21875 L 191.40625,309.21875 L 197.84375,323.46875 L 204.9375,323.46875 L 183.3125,274.8125 L 178.40625,274.8125 z M 210.6875,275.09375 L 210.6875,323.4375 L 229.5625,323.4375 C 245.52722,323.43751 255.21875,311.68043 255.21875,299.28125 C 255.21876,287.87289 247.37658,275.09375 229.5,275.09375 L 210.6875,275.09375 z M 263.21875,275.09375 L 263.21875,323.4375 L 270.1875,323.4375 L 270.1875,275.09375 L 263.21875,275.09375 z M 304.15625,280.875 C 315.01337,280.87501 323,288.64043 323,299.28125 C 322.99999,309.8523 315.01338,317.71875 304.15625,317.71875 C 293.36888,317.71177 285.34375,309.8523 285.34375,299.28125 C 285.34375,288.64043 293.36889,280.875 304.15625,280.875 z M 127.625,281.0625 L 132.09375,281.0625 C 138.81317,281.0625 141.51365,283.83956 141.5625,288.375 C 141.63926,292.42201 139.52488,296.21875 132.09375,296.21875 L 127.625,296.21875 L 127.625,281.0625 z M 217.65625,281.34375 L 228.34375,281.34375 C 241.9012,281.34374 248.0625,289.56845 248.0625,299.28125 C 248.06249,305.24011 244.43926,317.21875 228.71875,317.21875 L 217.65625,317.21875 L 217.65625,281.34375 z M 180.75,285.46875 L 188.5625,302.96875 L 173.53125,302.96875 L 180.75,285.46875 z"
         id="path300"
         style="fill:#000000;fill-opacity:1;fill-rule:evenodd" />
      <path
         d="M 525.03699,192.65003 C 440.39184,192.65003 371.7812,261.29556 371.7812,345.98258 C 371.7812,430.69052 440.39184,499.33605 525.03699,499.33605 C 609.70306,499.33605 678.29975,430.69052 678.29975,345.98258 C 678.29975,261.30254 609.70306,192.65003 525.03699,192.65003 M 607.30277,441.77791 L 438.0683,441.77791 L 525.42773,339.20734 C 537.86877,325.15447 544.60913,315.60913 544.60913,305.38696 C 544.60913,296.19747 538.32232,286.28231 528.14899,286.28231 C 515.94519,286.28231 509.82584,298.33261 509.33741,306.86621 L 508.9048,314.96021 L 452.84684,314.96021 L 453.31434,305.95214 C 454.14467,290.15488 456.80313,281.48173 464.22729,270.20595 C 479.24306,247.36132 500.30143,236.23904 528.57462,236.23904 C 576.21761,236.23904 605.80259,261.36534 605.80259,301.82839 C 605.80259,318.88162 599.92746,332.67631 586.39093,347.67115 L 551.64951,387.36666 L 607.30277,387.36666 L 607.30277,441.77791 z"
         id="path324"
         style="fill:#eb7c24" />
    </g>
  </g>
</svg>
