<?xml version="1.0" encoding="UTF-8" standalone="no"?>
<!-- Created with Inkscape (http://www.inkscape.org/) -->
<svg
   xmlns:svg="http://www.w3.org/2000/svg"
   xmlns="http://www.w3.org/2000/svg"
   version="1.0"
   width="581.98816"
   height="248.03149"
   id="svg4085">
  <defs
     id="defs4087" />
  <g
     id="layer1">
    <g
       id="g3711">
      <path
         d="M 262.78664,47.016206 L 262.78664,208.96349 L 334.93842,208.96349 L 334.93842,47.016206 L 262.78664,47.016206 z"
         id="rect4115"
         style="fill:#ffffff;fill-opacity:1;fill-rule:nonzero;stroke:none;marker:none;marker-start:none;marker-mid:none;marker-end:none;visibility:visible;display:inline;overflow:visible" />
      <path
         d="M 298.0625,17.71875 C 239.37601,17.718744 191.8125,65.298312 191.8125,124 C 191.81251,182.71691 239.37601,230.3125 298.0625,230.3125 C 356.73377,230.31252 404.3125,182.7169 404.3125,124 C 404.31251,65.298327 356.73377,17.71875 298.0625,17.71875 z M 67.375,24.25 L 67.375,64.84375 L 110.46875,64.84375 L 110.46875,24.25 L 67.375,24.25 z M 117,24.25 L 117,64.84375 L 160.09375,64.84375 L 160.09375,24.25 L 117,24.25 z M 17.71875,24.28125 L 17.71875,64.8125 L 60.8125,64.8125 L 60.8125,24.28125 L 17.71875,24.28125 z M 140.46875,29.5625 C 140.84894,29.5625 141.24565,29.563331 141.65625,29.59375 C 141.88438,29.603889 142.12069,29.620765 142.34375,29.65625 C 142.69352,29.676522 143.02439,29.735639 143.34375,29.78125 L 143.59375,29.8125 C 143.78131,29.853051 143.99994,29.865706 144.1875,29.90625 C 144.41563,29.936663 144.62072,29.985618 144.84375,30.03125 C 145.07188,30.0718 145.27695,30.131742 145.5,30.1875 C 145.63179,30.217911 145.7432,30.255904 145.875,30.28125 C 146.06763,30.331948 146.29215,30.381735 146.5,30.4375 C 146.64701,30.478058 146.80146,30.516868 146.96875,30.5625 L 147.125,30.59375 C 147.30749,30.639374 147.45265,30.709434 147.625,30.75 C 147.85311,30.81083 148.0523,30.876663 148.25,30.9375 C 148.44263,30.998332 148.6089,31.084442 148.78125,31.125 C 148.99922,31.20611 149.21867,31.26772 149.40625,31.34375 C 149.75602,31.455272 150.0489,31.601331 150.3125,31.6875 C 150.89038,31.915617 151.25,32.031243 151.25,32.03125 L 151.25,37.46875 L 150.6875,37.15625 C 150.46952,37.034588 150.20534,36.907147 149.90625,36.75 C 149.7339,36.658758 149.54652,36.575206 149.34375,36.46875 C 149.11058,36.372434 148.86242,36.215418 148.59375,36.09375 C 148.26425,35.941678 147.95368,35.83958 147.59375,35.6875 C 147.33016,35.591183 147.04992,35.471323 146.78125,35.375 C 146.78125,35.374999 146.61159,35.293956 146.3125,35.1875 C 146.13001,35.121595 145.88353,35.05492 145.625,34.96875 C 145.44758,34.912985 145.26527,34.853044 145.0625,34.8125 C 144.73299,34.726324 144.36923,34.65881 143.96875,34.5625 C 143.72036,34.516876 143.41396,34.483125 143.125,34.4375 C 142.8107,34.38681 142.50096,34.326868 142.15625,34.28125 C 141.96869,34.260979 141.78638,34.275339 141.59375,34.25 C 141.30987,34.239862 141.03895,34.21875 140.75,34.21875 C 140.6182,34.208612 140.50091,34.218743 140.34375,34.21875 C 139.97371,34.218752 139.5981,34.245758 139.1875,34.28125 C 138.97458,34.291391 138.77035,34.323484 138.5625,34.34375 C 138.33946,34.37417 138.12423,34.402008 137.90625,34.4375 C 137.71361,34.483126 137.50514,34.516882 137.3125,34.5625 C 137.11988,34.613192 136.9477,34.652853 136.75,34.71875 C 136.53709,34.774515 136.31763,34.830206 136.125,34.90625 C 135.93237,34.972147 135.75512,35.017699 135.5625,35.09375 C 135.38508,35.169786 135.19264,35.25758 135,35.34375 C 133.82901,35.881087 132.71149,36.611156 131.6875,37.625 C 131.62668,37.690906 131.54986,37.772779 131.46875,37.84375 C 131.3471,37.980619 131.21541,38.144382 131.09375,38.28125 C 131.00758,38.392773 130.91471,38.487287 130.84375,38.59375 C 130.6055,38.90297 130.40124,39.24822 130.21875,39.5625 C 130.1275,39.699376 130.07604,39.821743 130,39.96875 C 129.89862,40.151243 129.79479,40.333559 129.71875,40.53125 C 129.65285,40.668117 129.57179,40.80064 129.53125,40.9375 C 129.44,41.155476 129.40458,41.338625 129.34375,41.53125 C 129.27784,41.744156 129.21201,41.974582 129.15625,42.1875 C 129.08528,42.49672 129.04562,42.773538 129,43.0625 C 128.9493,43.513663 128.88515,43.930633 128.875,44.25 L 128.875,44.59375 C 128.875,44.761039 128.86486,44.943332 128.875,45.15625 C 128.88514,45.308325 128.90201,45.457714 128.9375,45.625 C 128.97806,46.091374 129.06583,46.619744 129.1875,47.1875 C 129.25338,47.380132 129.29896,47.614795 129.375,47.8125 C 129.45103,48.091308 129.53459,48.346199 129.65625,48.625 C 129.72722,48.782148 129.80403,48.962773 129.875,49.125 C 129.97638,49.327765 130.07091,49.499934 130.1875,49.6875 C 130.25846,49.824373 130.36736,49.972089 130.46875,50.09375 C 130.54987,50.240765 130.62244,50.368199 130.71875,50.5 C 130.84041,50.631802 130.95605,50.805699 131.0625,50.9375 C 131.27035,51.196029 131.49654,51.444177 131.75,51.6875 L 131.8125,51.75 L 131.875,51.78125 L 131.9375,51.875 L 132.15625,52.03125 C 132.29311,52.1377 132.40536,52.284596 132.5625,52.40625 C 132.70951,52.532978 132.87917,52.653677 133.03125,52.75 C 133.16813,52.851382 133.29473,52.913817 133.40625,53 C 133.5482,53.076036 133.69591,53.168897 133.8125,53.25 C 134.08624,53.397006 134.35126,53.529528 134.625,53.65625 C 134.75174,53.712012 134.88847,53.787978 135,53.84375 C 135.09125,53.874164 135.14272,53.880904 135.21875,53.90625 C 135.33533,53.962009 135.46702,54.032088 135.59375,54.0625 C 136.36934,54.341309 137.17796,54.514323 137.96875,54.65625 C 138.48075,54.732287 138.95592,54.808272 139.4375,54.84375 C 139.85825,54.874161 140.27098,54.90625 140.65625,54.90625 C 140.83874,54.906249 141.03709,54.885133 141.25,54.875 C 141.55922,54.864867 141.93232,54.821802 142.3125,54.78125 C 142.56595,54.755903 142.78368,54.749176 143.0625,54.71875 C 143.17401,54.693404 143.31584,54.666383 143.4375,54.65625 C 144.41079,54.473758 145.50214,54.207059 146.71875,53.78125 C 147.35241,53.558207 148.01329,53.261926 148.6875,52.9375 C 149.08798,52.744874 149.48468,52.525404 149.875,52.3125 C 150.23999,52.109729 150.58349,51.925757 150.96875,51.6875 L 151.375,51.46875 C 151.42569,51.423124 151.48646,51.384308 151.5625,51.34375 L 151.5625,56.875 C 151.46111,56.905417 151.36742,56.959434 151.28125,57 C 151.05314,57.111521 150.81763,57.237302 150.625,57.34375 C 150.38675,57.435001 150.15041,57.538831 149.9375,57.625 C 149.58264,57.792287 149.26867,57.898611 149,58 C 148.8175,58.076037 148.64278,58.126676 148.53125,58.1875 L 148.28125,58.28125 C 148.02272,58.362359 147.77881,58.455207 147.5,58.53125 C 147.26175,58.60222 147.00346,58.689169 146.75,58.75 C 146.41037,58.820962 146.07782,58.913817 145.6875,59 C 145.45431,59.040554 145.19602,59.115705 144.9375,59.15625 C 144.54211,59.227221 144.14373,59.271941 143.6875,59.3125 C 143.39855,59.358126 143.09047,59.385971 142.78125,59.40625 L 142.625,59.4375 C 141.84434,59.503398 141.03745,59.531257 140.125,59.53125 L 139.78125,59.53125 C 139.53791,59.510971 139.28471,59.525339 139.03125,59.5 C 138.53446,59.484794 138.01872,59.435838 137.5625,59.375 C 137.086,59.309103 136.59726,59.242419 136.15625,59.15625 C 135.62399,59.044729 135.137,58.954434 134.625,58.8125 C 134.33099,58.726326 134.04992,58.632626 133.78125,58.53125 C 133.49737,58.440006 133.22727,58.325213 132.96875,58.21875 C 132.28441,57.939941 131.63027,57.652978 131.0625,57.34375 C 130.78371,57.171399 130.54992,56.99075 130.28125,56.84375 C 130.03286,56.681536 129.8168,56.537213 129.59375,56.375 C 129.40619,56.248265 129.21965,56.095478 129.0625,55.96875 C 128.88001,55.836956 128.72471,55.689234 128.5625,55.5625 C 128.33438,55.36987 128.14026,55.172346 127.9375,55 L 127.8125,54.875 C 127.58946,54.651955 127.36916,54.38861 127.15625,54.125 C 126.96362,53.912096 126.77117,53.706993 126.59375,53.46875 C 126.41633,53.25077 126.23486,53.029653 126.0625,52.78125 C 125.93577,52.588618 125.80917,52.411389 125.6875,52.21875 C 125.53543,51.965288 125.397,51.690963 125.25,51.4375 C 125.02188,50.981271 124.77542,50.522956 124.5625,50.03125 C 124.44592,49.722021 124.3252,49.392 124.21875,49.0625 C 124.11736,48.788758 124.05493,48.487426 123.96875,48.21875 C 123.9282,47.990642 123.85306,47.775397 123.8125,47.5625 C 123.79223,47.456044 123.77028,47.366588 123.75,47.25 C 123.69931,46.991471 123.65541,46.747552 123.625,46.46875 L 123.59375,46.28125 C 123.57347,46.042992 123.52027,45.826927 123.5,45.59375 C 123.5,45.365633 123.5,45.139441 123.5,44.90625 C 123.5,44.60717 123.51098,44.299095 123.53125,44 C 123.56167,43.599536 123.61569,43.229008 123.65625,42.84375 C 123.81847,41.662621 124.09953,40.502873 124.5,39.46875 C 124.83456,38.627256 125.21607,37.81358 125.6875,37.09375 C 125.74833,36.972087 125.82008,36.876728 125.90625,36.75 C 126.02791,36.567508 126.14437,36.401242 126.28125,36.21875 C 126.4536,35.995707 126.59369,35.775404 126.78125,35.5625 C 126.94853,35.354661 127.12494,35.146176 127.3125,34.96875 C 127.46964,34.755838 127.67139,34.552426 127.84375,34.375 C 128.06173,34.17223 128.27696,33.952772 128.5,33.75 C 128.7484,33.537094 129.00751,33.337905 129.28125,33.125 C 129.40798,33.023618 129.52445,32.940066 129.65625,32.84375 C 129.82354,32.727155 129.99404,32.606455 130.15625,32.5 C 130.4452,32.30737 130.73215,32.10986 131.03125,31.9375 C 131.36075,31.755008 131.6764,31.60986 132.03125,31.4375 C 132.43679,31.229662 132.89259,31.062572 133.34375,30.875 C 134.21566,30.530293 135.1272,30.212904 136.15625,30 C 136.30834,29.949301 136.505,29.957773 136.6875,29.9375 C 136.79903,29.907089 136.91467,29.885146 137.03125,29.875 L 137.3125,29.8125 L 137.5625,29.78125 L 137.78125,29.75 C 138.02458,29.714514 138.26258,29.676522 138.53125,29.65625 C 138.69348,29.630898 138.8589,29.635147 139.03125,29.625 C 139.34555,29.604721 139.66543,29.593756 140,29.59375 C 140.16727,29.59375 140.29638,29.562507 140.46875,29.5625 z M 29,29.9375 L 38.5,29.9375 C 43.589509,29.9375 45.843751,32.625 45.84375,32.625 C 45.84375,32.625 47.906251,34.402702 47.90625,37.5 C 47.90625,40.582092 46.525464,41.854602 46.125,42.25 C 45.288574,43.096565 44.187499,43.593751 44.1875,43.59375 C 44.1875,43.59375 46.599033,44.109176 48.5,46 C 50.730461,48.23046 50.5625,51.15625 50.5625,51.15625 C 50.5625,51.15625 50.741498,53.925723 48.34375,56.34375 C 45.383319,59.29404 39.999999,59.15625 40,59.15625 L 29,59.15625 L 29,29.9375 z M 78.65625,29.9375 L 88.15625,29.9375 C 93.245761,29.937499 95.500007,32.625013 95.5,32.625 C 95.500002,32.625001 97.59375,34.402702 97.59375,37.5 C 97.593747,40.58209 96.18172,41.849537 95.78125,42.25 C 94.934686,43.096564 93.84375,43.59375 93.84375,43.59375 C 93.843747,43.59375 96.255295,44.109185 98.15625,46 C 100.38671,48.230459 100.25,51.15625 100.25,51.15625 C 100.25,51.156249 100.39774,53.925731 98,56.34375 C 95.039566,59.294041 89.6875,59.156257 89.6875,59.15625 L 78.65625,59.15625 L 78.65625,29.9375 z M 34.25,34.5625 L 34.25,42.125 L 36.75,42.125 C 36.749999,42.124992 36.912096,42.13514 37.125,42.125 C 37.307494,42.124992 37.515147,42.087845 37.6875,42.0625 C 38.209632,42.037161 38.915303,41.989088 39.625,41.78125 C 39.766934,41.750839 39.915493,41.701874 40.0625,41.65625 C 40.609976,41.453472 41.151897,41.170742 41.5625,40.75 C 41.897072,40.430645 42.097919,40.078668 42.25,39.71875 C 42.422351,39.298008 42.510971,38.856514 42.53125,38.5625 C 42.551523,38.293838 42.5625,38.125 42.5625,38.125 L 42.5625,37.8125 C 42.532089,37.493141 42.472206,36.949492 42.21875,36.4375 C 42.086951,36.19417 41.900411,35.946868 41.6875,35.71875 C 41.398558,35.445024 41.057558,35.219647 40.6875,35.0625 C 39.987951,34.748199 39.189418,34.624162 38.5,34.59375 C 38.211058,34.573479 37.905478,34.5625 37.6875,34.5625 L 34.25,34.5625 z M 83.90625,34.5625 L 83.90625,42.125 L 86.40625,42.125 C 86.406242,42.124992 86.558206,42.13514 86.78125,42.125 C 86.968813,42.124992 87.166331,42.087845 87.34375,42.0625 C 87.865884,42.032088 88.576626,41.989088 89.28125,41.78125 C 89.428264,41.750832 89.586948,41.701874 89.71875,41.65625 C 90.276359,41.453486 90.787861,41.139499 91.21875,40.71875 C 91.538113,40.399382 91.785427,40.047412 91.9375,39.6875 C 92.109854,39.266745 92.157088,38.851448 92.1875,38.5625 C 92.197641,38.293824 92.21875,38.125 92.21875,38.125 C 92.218751,38.125001 92.21875,38.015265 92.21875,37.8125 C 92.208612,37.493134 92.133529,36.949492 91.875,36.4375 C 91.748281,36.194177 91.55075,35.946868 91.3125,35.71875 C 91.033694,35.439944 90.718875,35.21458 90.34375,35.0625 C 89.649263,34.743133 88.825389,34.624162 88.15625,34.59375 C 87.847025,34.573472 87.571867,34.5625 87.34375,34.5625 L 83.90625,34.5625 z M 34.25,46.6875 L 34.25,54.65625 L 39.4375,54.65625 C 39.4375,54.65625 39.535419,54.65625 39.6875,54.65625 C 39.864919,54.646104 40.107162,54.619096 40.40625,54.59375 C 40.963865,54.543065 41.717669,54.430823 42.4375,54.1875 C 43.076222,53.979655 43.695781,53.66908 44.1875,53.1875 C 44.3852,52.994881 44.539655,52.786375 44.65625,52.59375 C 45.066853,51.949964 45.172294,51.297419 45.1875,50.9375 C 45.207779,50.775279 45.1875,50.6875 45.1875,50.6875 L 45.1875,50.5 C 45.16722,50.347927 45.17486,50.043183 45.09375,49.71875 C 44.99744,49.348698 44.814294,48.91061 44.5,48.5 C 44.43917,48.418891 44.388536,48.342081 44.3125,48.28125 C 44.155361,48.124094 44.016103,48.006801 43.84375,47.875 C 43.549733,47.667154 43.214639,47.475551 42.875,47.34375 C 42.398494,47.125766 41.880257,46.971316 41.3125,46.875 C 41.023552,46.819244 40.689293,46.765213 40.375,46.75 C 40.182366,46.719589 39.984021,46.697639 39.78125,46.6875 C 39.608897,46.677355 39.432492,46.6875 39.25,46.6875 L 34.25,46.6875 z M 83.90625,46.6875 L 83.90625,54.65625 L 89.0625,54.65625 C 89.0625,54.65625 89.196743,54.65625 89.34375,54.65625 C 89.526242,54.646104 89.758346,54.619096 90.0625,54.59375 C 90.620108,54.543065 91.37392,54.430823 92.09375,54.1875 C 92.747684,53.974589 93.352037,53.66908 93.84375,53.1875 C 94.031313,52.994867 94.180699,52.786382 94.3125,52.59375 C 94.707894,51.94995 94.823471,51.297412 94.84375,50.9375 C 94.853893,50.775286 94.84375,50.6875 94.84375,50.6875 C 94.843753,50.687507 94.84375,50.616588 94.84375,50.5 C 94.843753,50.347913 94.857287,50.011926 94.78125,49.6875 C 94.669731,49.317448 94.47561,48.91061 94.15625,48.5 C 94.080204,48.418905 94.00847,48.342081 93.9375,48.28125 C 93.795557,48.124101 93.662213,48.001734 93.5,47.875 C 93.211051,47.667161 92.881029,47.475545 92.53125,47.34375 C 92.069949,47.130839 91.530602,46.966243 90.9375,46.875 C 90.668842,46.819244 90.371721,46.770279 90.0625,46.75 C 89.859727,46.719589 89.650404,46.697639 89.4375,46.6875 C 89.255007,46.677355 89.088743,46.6875 88.90625,46.6875 L 83.90625,46.6875 z M 286.25,52.59375 L 317.59375,52.59375 L 317.59375,195.28125 L 280.1875,195.28125 L 280.1875,93.5625 L 264.15625,93.5625 L 286.25,52.59375 z M 144.90625,74.4375 C 134.04289,74.432436 126.90625,82.338172 126.90625,91.625 C 126.90624,100.71919 133.86296,108.84375 144.8125,108.84375 C 156.17264,108.84375 162.9375,100.67358 162.9375,91.625 C 162.93751,82.28747 155.97745,74.4375 144.90625,74.4375 z M 57.71875,74.6875 L 43.4375,108.15625 C 41.295847,105.20914 40.424433,103.99184 39.03125,101.75 C 36.471291,97.583083 34.58293,94.481233 31.53125,92.46875 C 35.1304,91.034165 37.15625,88.133025 37.15625,84.25 C 37.156251,78.450798 32.949021,74.875 26.15625,74.875 L 17.71875,74.875 L 17.71875,108.375 L 22.5,108.375 L 22.5,93.84375 L 24.53125,93.84375 C 26.999968,93.843749 29.00699,94.615989 33.4375,101.5 L 37.84375,108.375 L 43.59375,108.375 L 48.21875,108.375 L 52.46875,98.53125 L 66.71875,98.53125 L 71.1875,108.375 L 76.125,108.375 L 61.125,74.6875 L 57.71875,74.6875 z M 80.09375,74.875 L 80.09375,108.375 L 93.1875,108.375 C 104.25363,108.37501 110.96875,100.22242 110.96875,91.625 C 110.96875,83.711924 105.55051,74.875 93.15625,74.875 L 80.09375,74.875 z M 116.53125,74.875 L 116.53125,108.375 L 121.34375,108.375 L 121.34375,74.875 L 116.53125,74.875 z M 144.90625,78.84375 C 152.42899,78.843758 158,84.2442 158,91.625 C 157.99999,98.950025 152.43406,104.4375 144.90625,104.4375 C 137.43928,104.43243 131.875,98.944969 131.875,91.625 C 131.87501,84.244189 137.44435,78.84375 144.90625,78.84375 z M 22.5,79 L 25.625,79 C 30.283628,78.999994 32.178198,80.909438 32.21875,84.0625 C 32.274515,86.860714 30.77534,89.5 25.625,89.5 L 22.5,89.5 L 22.5,79 z M 84.9375,79.1875 L 92.34375,79.1875 C 101.7421,79.187513 106.03125,84.887993 106.03125,91.625 C 106.03126,95.751345 103.50274,104.09375 92.59375,104.09375 L 84.9375,104.09375 L 84.9375,79.1875 z M 59.375,82.0625 L 64.75,94.1875 L 54.34375,94.1875 L 59.375,82.0625 z"
         id="path238"
         style="fill:#000000;fill-opacity:1;fill-rule:evenodd" />
    </g>
  </g>
</svg>
